<mxfile host="Electron" agent="Mozilla/5.0 (Windows NT 10.0; Win64; x64) AppleWebKit/537.36 (KHTML, like Gecko) draw.io/26.0.16 Chrome/132.0.6834.196 Electron/34.2.0 Safari/537.36" version="26.0.16">
  <diagram name="PaginÄƒ-1" id="ZQWRdg_4BWA2zSZH12pE">
    <mxGraphModel dx="2577" dy="2217" grid="1" gridSize="10" guides="1" tooltips="1" connect="1" arrows="1" fold="1" page="1" pageScale="1" pageWidth="827" pageHeight="1169" math="0" shadow="0">
      <root>
        <mxCell id="0" />
        <mxCell id="1" parent="0" />
        <mxCell id="40SSgySEYnSSBJ9Uo3p--1" value="" style="ellipse;whiteSpace=wrap;html=1;aspect=fixed;" vertex="1" parent="1">
          <mxGeometry x="-380" y="-340" width="660" height="660" as="geometry" />
        </mxCell>
        <mxCell id="40SSgySEYnSSBJ9Uo3p--2" value="" style="ellipse;whiteSpace=wrap;html=1;aspect=fixed;fillColor=#fff2cc;strokeColor=#d6b656;" vertex="1" parent="1">
          <mxGeometry x="-240" y="-200" width="380" height="380" as="geometry" />
        </mxCell>
        <mxCell id="40SSgySEYnSSBJ9Uo3p--3" value="" style="ellipse;whiteSpace=wrap;html=1;aspect=fixed;" vertex="1" parent="1">
          <mxGeometry x="-120" y="-80" width="140" height="140" as="geometry" />
        </mxCell>
        <mxCell id="40SSgySEYnSSBJ9Uo3p--4" value="&lt;font style=&quot;font-size: 20px;&quot;&gt;Machine Learning&lt;/font&gt;" style="text;html=1;align=center;verticalAlign=middle;whiteSpace=wrap;rounded=0;" vertex="1" parent="1">
          <mxGeometry x="-80" y="-25" width="60" height="30" as="geometry" />
        </mxCell>
        <mxCell id="40SSgySEYnSSBJ9Uo3p--10" value="" style="endArrow=none;html=1;rounded=0;exitX=0;exitY=0;exitDx=0;exitDy=0;entryX=0;entryY=0;entryDx=0;entryDy=0;" edge="1" parent="1" source="40SSgySEYnSSBJ9Uo3p--3" target="40SSgySEYnSSBJ9Uo3p--1">
          <mxGeometry width="50" height="50" relative="1" as="geometry">
            <mxPoint x="160" y="50" as="sourcePoint" />
            <mxPoint x="210" as="targetPoint" />
          </mxGeometry>
        </mxCell>
      </root>
    </mxGraphModel>
  </diagram>
</mxfile>
